# xmcd
#
# Track frame offsets:
#	150
#	15089
#	32261
#	42479
#	72301
#	102045
#	115096
#	135900
#	151824
#	180751
#	207486
#	224998
#	266465
#	293953
#	309499
#
# Disc length: 4546 seconds
#
# Revision: 0
# Processed by: cddbd v1.5.2PL0 Copyright (c) Steve Scherf et al.
# Submitted via: dBpowerAMP V4.0
#
DISCID=c611c00f
DTITLE=Os serranos - Ao vivo na espointer
DYEAR=1900
DGENRE=Country
TTITLE0=01 - a chapa vai esquentar
TTITLE1=02 - se o rio grande me precisa
TTITLE2=03 - bailinho na capela/ éta baile bom
TTITLE3=04 - pêlos/ carreta/ canto alegretense
TTITLE4=05 - bolicho do tio candinho/ é disso que o velho gosta
TTITLE5=06 - baile da mariquinha/ panela velha
TTITLE6=07 - criado em galpão
TTITLE7=08 - lembranças
TTITLE8=09 - veterano/ tertúlia
TTITLE9=10 - vanera, vanera/ farra do sul
TTITLE10=11 - lida de costeiro/ gineteando um chamamé
TTITLE11=12 - de chão batido/ rancho de beira de estrada
TTITLE12=13 - roda que roda/ cambichos
TTITLE13=14 - fá e amigo
TTITLE14=15 - chacoaleando
EXTD=
EXTT0=
EXTT1=
EXTT2=
EXTT3=
EXTT4=
EXTT5=
EXTT6=
EXTT7=
EXTT8=
EXTT9=
EXTT10=
EXTT11=
EXTT12=
EXTT13=
EXTT14=
PLAYORDER=
